<?xml version="1.0" encoding="UTF-8" standalone="no" ?>
<!DOCTYPE svg PUBLIC "-//W3C//DTD SVG 1.1//EN" "http://www.w3.org/Graphics/SVG/1.1/DTD/svg11.dtd">
<svg xmlns="http://www.w3.org/2000/svg" xmlns:xlink="http://www.w3.org/1999/xlink" version="1.1" width="1080" height="1000" viewBox="0 0 1080 1000" xml:space="preserve">
<desc>Created with Fabric.js 5.2.4</desc>
<defs>
</defs>
<rect x="0" y="0" width="100%" height="100%" fill="transparent"></rect>
<g transform="matrix(0 0 0 0 0 0)" id="9f0e8c9a-1d57-41ac-922f-92e2b8dcad72"  >
</g>
<g transform="matrix(1 0 0 1 540 500)" id="be31227f-9d9d-41e4-acf7-7280b04a0273"  >
<rect style="stroke: none; stroke-width: 1; stroke-dasharray: none; stroke-linecap: butt; stroke-dashoffset: 0; stroke-linejoin: miter; stroke-miterlimit: 4; fill: rgb(83,249,255); fill-rule: nonzero; opacity: 1;" vector-effect="non-scaling-stroke"  x="-540" y="-500" rx="0" ry="0" width="1080" height="1000" />
</g>
<g transform="matrix(1.79 0 0 1.68 573.28 500)"  >
<g style="" vector-effect="non-scaling-stroke"   >
		<g transform="matrix(0.13 0 0 -0.13 -8.37 -7.82)"  >
<path style="stroke: none; stroke-width: 1; stroke-dasharray: none; stroke-linecap: butt; stroke-dashoffset: 0; stroke-linejoin: miter; stroke-miterlimit: 4; fill: rgb(5,51,96); fill-rule: nonzero; opacity: 1;" vector-effect="non-scaling-stroke"  transform=" translate(-2510, -2345)" d="M 0 2345 L 0 0 L 2510 0 L 5020 0 L 5020 2345 L 5020 4690 L 2510 4690 L 0 4690 L 0 2345 z M 2592 4066 C 2624 4051 2669 4019 2693 3995 C 2736 3953 2810 3840 2810 3817 C 2810 3811 2818 3797 2828 3786 C 2847 3765 2988 3522 3029 3443 C 3086 3329 3024 3179 2901 3135 C 2813 3104 2742 3123 2687 3193 C 2597 3307 2535 3343 2428 3343 C 2269 3343 2153 3224 2142 3049 C 2137 2964 2155 2884 2193 2825 C 2297 2662 2320 2615 2320 2559 C 2320 2500 2307 2463 2272 2427 C 2233 2386 2198 2370 2145 2370 C 2091 2370 2043 2389 2014 2421 C 2002 2434 1916 2576 1824 2735 C 1599 3122 1597 3045 1844 3470 C 1948 3649 2051 3826 2073 3864 C 2142 3984 2227 4061 2318 4087 C 2396 4108 2524 4099 2592 4066 z M 3280 2960 C 3308 2946 3330 2921 3363 2868 C 3440 2742 3480 2669 3480 2655 C 3480 2648 3484 2640 3489 2638 C 3505 2632 3788 2135 3806 2081 C 3830 2007 3821 1891 3785 1813 C 3737 1706 3637 1626 3522 1601 C 3454 1587 2929 1586 2862 1601 C 2767 1621 2690 1716 2690 1813 C 2690 1883 2715 1934 2771 1979 C 2812 2012 2829 2018 2886 2024 C 2971 2033 3008 2048 3063 2099 C 3214 2238 3167 2473 2968 2581 L 2905 2615 L 2715 2620 C 2497 2626 2468 2634 2425 2698 C 2362 2794 2392 2911 2495 2964 C 2521 2978 2578 2980 2883 2980 C 3220 2980 3243 2979 3280 2960 z M 1605 2719 C 1658 2706 1727 2649 1746 2603 C 1768 2552 1763 2489 1733 2424 C 1711 2377 1706 2351 1706 2300 C 1708 2186 1758 2103 1855 2052 C 1898 2029 1917 2025 1985 2026 C 2141 2027 2246 2096 2333 2255 C 2438 2447 2479 2485 2575 2484 C 2703 2482 2791 2361 2747 2248 C 2732 2211 2628 2029 2480 1780 C 2449 1728 2415 1681 2404 1675 C 2394 1670 2385 1659 2385 1651 C 2385 1643 2372 1628 2357 1616 C 2330 1596 2315 1595 2059 1592 C 1828 1590 1790 1592 1790 1604 C 1790 1612 1786 1621 1781 1624 C 1776 1627 1773 1622 1774 1612 C 1775 1596 1758 1595 1555 1595 C 1350 1596 1331 1597 1278 1619 C 1197 1650 1118 1725 1078 1808 C 1048 1869 1045 1882 1045 1970 C 1045 2084 1049 2094 1202 2356 C 1260 2454 1317 2554 1329 2578 C 1341 2601 1357 2620 1366 2620 C 1374 2620 1378 2625 1375 2631 C 1361 2653 1430 2705 1495 2721 C 1539 2731 1557 2731 1605 2719 z M 1222 1213 L 1225 1085 L 1365 1085 L 1505 1085 L 1508 1213 L 1511 1340 L 1565 1340 L 1620 1340 L 1620 1025 L 1620 710 L 1565 710 L 1510 710 L 1510 840 L 1510 970 L 1365 970 L 1220 970 L 1220 840 L 1220 710 L 1165 710 L 1110 710 L 1110 1025 L 1110 1340 L 1165 1340 L 1219 1340 L 1222 1213 z M 2685 1285 L 2685 1235 L 2588 1232 L 2490 1229 L 2490 969 L 2490 709 L 2434 712 L 2377 715 L 2376 970 L 2375 1225 L 2175 1225 L 1975 1225 L 1972 968 L 1970 710 L 1915 710 L 1860 710 L 1860 970 L 1860 1230 L 1760 1230 L 1660 1230 L 1660 1278 C 1660 1305 1663 1330 1667 1333 C 1670 1337 1901 1339 2179 1338 L 2685 1335 L 2685 1285 z M 3178 1320 C 3225 1291 3232 1262 3228 1118 C 3225 994 3224 990 3197 963 L 3170 935 L 3000 932 L 2830 929 L 2830 819 L 2830 710 L 2775 710 L 2720 710 L 2720 875 L 2720 1040 L 2920 1040 L 3121 1040 L 3118 1133 L 3115 1225 L 2918 1228 L 2720 1230 L 2720 1285 L 2720 1340 L 2933 1340 C 3127 1340 3148 1338 3178 1320 z M 3778 1284 L 3781 1234 L 3600 1029 L 3418 825 L 3599 822 L 3780 820 L 3780 765 L 3780 710 L 3523 712 L 3265 715 L 3262 762 C 3259 815 3240 790 3472 1052 C 3554 1143 3620 1221 3620 1224 C 3620 1227 3542 1230 3446 1230 L 3272 1230 L 3268 1278 C 3265 1304 3265 1328 3267 1333 C 3270 1337 3385 1339 3523 1338 L 3775 1335 L 3778 1284 z" stroke-linecap="round" />
</g>
		<g transform="matrix(0.13 0 0 -0.13 -79.11 -56.7)"  >
<path style="stroke: none; stroke-width: 1; stroke-dasharray: none; stroke-linecap: butt; stroke-dashoffset: 0; stroke-linejoin: miter; stroke-miterlimit: 4; fill: rgb(5,51,96); fill-rule: nonzero; opacity: 1;" vector-effect="non-scaling-stroke"  transform=" translate(-1917, -2770)" d="M 1905 2770 C 1902 2765 1906 2760 1914 2760 C 1923 2760 1930 2765 1930 2770 C 1930 2776 1926 2780 1921 2780 C 1915 2780 1908 2776 1905 2770 z" stroke-linecap="round" />
</g>
		<g transform="matrix(0.13 0 0 -0.13 -109.39 33.37)"  >
<path style="stroke: none; stroke-width: 1; stroke-dasharray: none; stroke-linecap: butt; stroke-dashoffset: 0; stroke-linejoin: miter; stroke-miterlimit: 4; fill: rgb(5,51,96); fill-rule: nonzero; opacity: 1;" vector-effect="non-scaling-stroke"  transform=" translate(-1689.81, -2094.4)" d="M 1687 2103 C 1683 2100 1680 2092 1680 2086 C 1680 2080 1685 2081 1692 2088 C 1698 2094 1701 2102 1699 2105 C 1696 2108 1690 2107 1687 2103 z" stroke-linecap="round" />
</g>
</g>
</g>
<g transform="matrix(0 0 0 0 0 0)"  >
<g style=""   >
</g>
</g>
<g transform="matrix(0 0 0 0 0 0)"  >
<g style=""   >
</g>
</g>
</svg>